<?xml version="1.0" encoding="utf-8"?>
<!-- Generator: Adobe Illustrator 22.0.1, SVG Export Plug-In . SVG Version: 6.00 Build 0)  -->
<svg version="1.1" id="Layer_1" xmlns="http://www.w3.org/2000/svg" xmlns:xlink="http://www.w3.org/1999/xlink" x="0px" y="0px"
	 viewBox="0 0 1000 480.7" style="enable-background:new 0 0 1000 480.7;" xml:space="preserve">
<style type="text/css">
	.st0{fill:#FFFFFF;}
</style>
<path class="st0" d="M582,140.5v199.7h352.8V140.5H582z M708.2,214.6h-1.8c-11.5,0-20.5,3.5-27,10.4c-6.6,6.9-9.8,17.7-9.8,32.3
	v44.8h-34.4V180.9h34.3v24.4c3.5-8.3,8.2-14.9,14.3-19.9c6-5,14.2-7.2,24.4-6.8V214.6z M804.3,302.1l-24.4-37.8l-24.4,37.8h-36
	l42.5-61.5l-41-59.7h36.9l22.6,35.3l22.8-35.3h36l-40.9,59l42.8,62.2H804.3z M873.9,333.5h-11.8V148.7h11.8V333.5z"/>
<g>
	<path class="st0" d="M115,303.4c-5.3,0-10.1-0.6-14.4-1.7s-8-3.1-11.1-6s-5.5-6.6-7.2-11.2s-2.6-10.4-2.6-17.5v-57.5H65.2v-29.4
		h14.5v-31h34.4v31h28.5v29.4h-28.5v52c0,7.9,3.7,11.8,11.1,11.8c6,0,11.7-1.5,17-4.5v27.6c-3.6,2.1-7.6,3.8-12,5.1
		C125.7,302.7,120.7,303.4,115,303.4z"/>
	<path class="st0" d="M196.9,338.2c-6.3,0-11.9-0.8-16.7-2.3s-9.4-3.5-13.8-6.1l11.5-24.9c2.3,1.4,4.7,2.5,7.4,3.4
		c2.6,0.9,5.1,1.4,7.4,1.4c3,0,5.4-0.6,7.1-1.7c1.7-1.1,3.4-3.2,4.9-6.2L157,180.1h36.4l27.6,82.6l26.5-82.6h35.7l-46.6,124.2
		c-2.3,6.2-4.7,11.4-7.2,15.7c-2.6,4.3-5.4,7.8-8.5,10.5s-6.6,4.7-10.5,5.9C206.5,337.6,202,338.2,196.9,338.2z"/>
	<path class="st0" d="M299.4,180.1h34.4v17.4c4.2-5.7,9.3-10.4,15.3-14.1c6-3.7,13.5-5.5,22.5-5.5c7.1,0,13.9,1.4,20.6,4.1
		c6.6,2.7,12.5,6.8,17.6,12.1c5.1,5.4,9.2,11.9,12.3,19.7c3.1,7.8,4.6,16.7,4.6,26.8v0.5c0,10.1-1.5,19-4.6,26.8
		s-7.2,14.3-12.2,19.7c-5.1,5.4-10.9,9.4-17.5,12.1s-13.6,4.1-20.8,4.1c-9.2,0-16.8-1.8-22.7-5.4c-6-3.6-11-7.8-15-12.7v52h-34.4
		L299.4,180.1L299.4,180.1z M362.7,274.4c4.1,0,7.9-0.8,11.4-2.4s6.7-3.8,9.4-6.8c2.7-2.9,4.9-6.4,6.4-10.5
		c1.6-4.1,2.4-8.7,2.4-13.8v-0.5c0-5-0.8-9.5-2.4-13.7c-1.6-4.1-3.7-7.7-6.4-10.6s-5.8-5.2-9.4-6.8c-3.5-1.6-7.4-2.4-11.4-2.4
		c-4.1,0-7.9,0.8-11.4,2.4c-3.5,1.6-6.6,3.8-9.3,6.8c-2.6,2.9-4.8,6.5-6.3,10.6c-1.6,4.1-2.4,8.7-2.4,13.7v0.5c0,5,0.8,9.5,2.4,13.7
		c1.6,4.1,3.7,7.7,6.3,10.6c2.6,2.9,5.7,5.2,9.3,6.8C354.8,273.6,358.7,274.4,362.7,274.4z"/>
	<path class="st0" d="M502.1,304.1c-9,0-17.5-1.5-25.2-4.5c-7.8-3-14.5-7.3-20.1-12.9c-5.7-5.6-10.1-12.2-13.2-19.8
		c-3.2-7.6-4.8-16.1-4.8-25.5v-0.5c0-8.6,1.5-16.7,4.4-24.4s7-14.4,12.3-20.1c5.3-5.7,11.6-10.3,18.9-13.6s15.4-5,24.3-5
		c10.1,0,18.9,1.8,26.2,5.4c7.4,3.6,13.5,8.5,18.4,14.6s8.5,13.1,10.9,21c2.3,7.9,3.5,16.2,3.5,24.8c0,1.4,0,2.8-0.1,4.3
		s-0.2,3.1-0.3,4.8h-84.4c1.7,7.8,5.1,13.8,10.3,17.8c5.2,4,11.7,6,19.3,6c5.7,0,10.9-1,15.4-2.9c4.5-2,9.2-5.1,14-9.5l19.7,17.4
		c-5.7,7.1-12.7,12.6-20.8,16.6S513.1,304.1,502.1,304.1z M524.3,231.2c-1.1-7.7-3.8-13.9-8.1-18.7c-4.4-4.8-10.2-7.1-17.4-7.1
		c-7.2,0-13.1,2.3-17.5,7c-4.5,4.7-7.4,10.9-8.7,18.8H524.3z"/>
</g>
</svg>
