<svg width="440" height="110" xmlns="http://www.w3.org/2000/svg">
 <style type="text/css">.st0{fill:#3C90F7;}
	.st1{fill:#FFFFFF;}</style>
 <defs>
  <filter id="svg_1_blur">
   <feGaussianBlur stdDeviation="0" in="SourceGraphic"/>
  </filter>
 </defs>
 <g>
  <title>background</title>
  <rect fill="none" id="canvas_background" height="112" width="442" y="-1" x="-1"/>
 </g>
 <g>
  <title>Layer 1</title>
  <g stroke="null" filter="url(#svg_1_blur)" id="svg_1">
   <rect stroke="null" id="svg_2" height="98.655849" width="174.290353" class="st0" y="5.197672" x="259.509693"/>
   <g stroke="null" id="svg_3">
    <path stroke="null" id="svg_4" d="m28.802224,85.673575c-2.618307,0 -4.989605,-0.296412 -7.113892,-0.839834s-3.952162,-1.531463 -5.483625,-2.964122s-2.717112,-3.260534 -3.556946,-5.533027s-1.284453,-5.137811 -1.284453,-8.645355l0,-28.406166l-7.163294,0l0,-14.524196l7.163294,0l0,-15.314629l16.994298,0l0,15.314629l14.079578,0l0,14.524196l-14.079578,0l0,25.689054c0,3.90276 1.827875,5.829439 5.483625,5.829439c2.964122,0 5.780037,-0.74103 8.398345,-2.223091l0,13.63496c-1.778473,1.037443 -3.754554,1.877277 -5.928243,2.519503c-2.223091,0.592824 -4.693193,0.938639 -7.509108,0.938639z" class="st0"/>
    <path stroke="null" id="svg_5" d="m69.262485,102.865481c-3.112328,0 -5.878841,-0.395216 -8.250139,-1.136247s-4.643791,-1.729071 -6.81748,-3.013524l5.681233,-12.301105c1.136247,0.691628 2.321895,1.235051 3.65575,1.679669c1.284453,0.444618 2.519503,0.691628 3.65575,0.691628c1.482061,0 2.667709,-0.296412 3.507544,-0.839834c0.839834,-0.543422 1.679669,-1.580865 2.420699,-3.062926l-23.564767,-60.122268l17.982338,0l13.63496,40.806075l13.091537,-40.806075l17.636524,0l-23.021345,61.357318c-1.136247,3.062926 -2.321895,5.631831 -3.556946,7.756118c-1.284453,2.124287 -2.667709,3.853358 -4.199172,5.187213s-3.260534,2.321895 -5.187213,2.91472c-1.926679,0.592824 -4.14977,0.889236 -6.669274,0.889236z" class="st0"/>
    <path stroke="null" id="svg_6" d="m119.899563,24.760875l16.994298,0l0,8.595953c2.074885,-2.815916 4.594389,-5.137811 7.55851,-6.965686c2.964122,-1.827875 6.669274,-2.717112 11.115456,-2.717112c3.507544,0 6.866882,0.691628 10.176818,2.025483c3.260534,1.333855 6.175253,3.359338 8.694757,5.977645c2.519503,2.667709 4.544987,5.878841 6.076449,9.732199c1.531463,3.853358 2.272493,8.250139 2.272493,13.239743l0,0.24701c0,4.989605 -0.74103,9.386385 -2.272493,13.239743s-3.556946,7.06449 -6.027047,9.732199c-2.519503,2.667709 -5.384821,4.643791 -8.645355,5.977645s-6.718676,2.025483 -10.275622,2.025483c-4.544987,0 -8.299541,-0.889236 -11.21426,-2.667709c-2.964122,-1.778473 -5.434223,-3.853358 -7.410304,-6.274058l0,25.689054l-16.994298,0l-0.049402,-77.857596l0,0zm31.271483,46.586112c2.025483,0 3.90276,-0.395216 5.631831,-1.185649s3.309936,-1.877277 4.643791,-3.359338c1.333855,-1.432659 2.420699,-3.16173 3.16173,-5.187213c0.790432,-2.025483 1.185649,-4.297976 1.185649,-6.81748l0,-0.24701c0,-2.470101 -0.395216,-4.693193 -1.185649,-6.768078c-0.790432,-2.025483 -1.827875,-3.803956 -3.16173,-5.236615s-2.865318,-2.568905 -4.643791,-3.359338c-1.729071,-0.790432 -3.65575,-1.185649 -5.631831,-1.185649c-2.025483,0 -3.90276,0.395216 -5.631831,1.185649c-1.729071,0.790432 -3.260534,1.877277 -4.594389,3.359338c-1.284453,1.432659 -2.371297,3.211132 -3.112328,5.236615c-0.790432,2.025483 -1.185649,4.297976 -1.185649,6.768078l0,0.24701c0,2.470101 0.395216,4.693193 1.185649,6.768078c0.790432,2.025483 1.827875,3.803956 3.112328,5.236615c1.284453,1.432659 2.815916,2.568905 4.594389,3.359338c1.729071,0.790432 3.65575,1.185649 5.631831,1.185649z" class="st0"/>
    <path stroke="null" id="svg_7" d="m220.037473,86.01939c-4.446182,0 -8.645355,-0.74103 -12.449311,-2.223091c-3.853358,-1.482061 -7.163294,-3.606348 -9.929808,-6.372862c-2.815916,-2.766514 -4.989605,-6.027047 -6.521068,-9.781601c-1.580865,-3.754554 -2.371297,-7.953726 -2.371297,-12.597517l0,-0.24701c0,-4.248574 0.74103,-8.250139 2.173689,-12.054095s3.458142,-7.113892 6.076449,-9.929808c2.618307,-2.815916 5.730635,-5.088409 9.336983,-6.718676s7.607912,-2.470101 12.004693,-2.470101c4.989605,0 9.336983,0.889236 12.943331,2.667709c3.65575,1.778473 6.669274,4.199172 9.089973,7.212696s4.199172,6.471666 5.384821,10.374426c1.136247,3.90276 1.729071,8.003128 1.729071,12.251703c0,0.691628 0,1.383257 -0.049402,2.124287s-0.098804,1.531463 -0.148206,2.371297l-41.695311,0c0.839834,3.853358 2.519503,6.81748 5.088409,8.793561c2.568905,1.976081 5.780037,2.964122 9.534591,2.964122c2.815916,0 5.384821,-0.49402 7.607912,-1.432659c2.223091,-0.988041 4.544987,-2.519503 6.916284,-4.693193l9.732199,8.595953c-2.815916,3.507544 -6.274058,6.224655 -10.275622,8.200737s-8.744159,2.964122 -14.178382,2.964122zm10.96725,-36.014078c-0.543422,-3.803956 -1.877277,-6.866882 -4.001564,-9.238179c-2.173689,-2.371297 -5.039007,-3.507544 -8.595953,-3.507544c-3.556946,0 -6.471666,1.136247 -8.645355,3.458142c-2.223091,2.321895 -3.65575,5.384821 -4.297976,9.287581l25.540848,0z" class="st0"/>
   </g>
   <g stroke="null" id="svg_8">
    <path stroke="null" id="svg_9" d="m285.74217,25.156092l16.994298,0l0,12.054095c1.729071,-4.100368 4.050966,-7.360902 7.06449,-9.831003c2.964122,-2.470101 7.015088,-3.556946 12.054095,-3.359338l0,17.78473l-0.889236,0c-5.681233,0 -10.127416,1.729071 -13.338547,5.137811c-3.260534,3.40874 -4.841399,8.744159 -4.841399,15.956855l0,22.132108l-16.994298,0l0,-59.875257l-0.049402,0z" class="st1"/>
    <path stroke="null" id="svg_10" d="m348.433343,54.649102l-20.254831,-29.49301l18.229348,0l11.164858,17.438916l11.263662,-17.438916l17.78473,0l-20.205429,29.147196l21.144068,30.728061l-18.229348,0l-12.054095,-18.673966l-12.054095,18.673966l-17.78473,0l20.995862,-30.382247z" class="st1"/>
   </g>
   <rect stroke="null" id="svg_11" height="91.294947" width="5.829439" class="st1" y="9.248639" x="397.884773"/>
  </g>
 </g>
</svg>